<svg xmlns="http://www.w3.org/2000/svg" version="1.1" height="112" width="280" viewBox="0 0 280 112" class="diagram" text-anchor="middle" font-family="monospace" font-size="13px" stroke-linecap="round">
<text class="ascii" display="none"><![CDATA[
 _   _           _        ___
| \ | |         | |      |_  |
|  \| | ___   __| | ___    | |___
| . ` |/ _ \ / _` |/ _ \   | / __|
| |\  | (_) | (_| |  __/\__/ \__ \
\_| \_/\___/ \__,_|\___\____/|___/
]]></text>
<path d="M 8,24 L 8,80" fill="none" stroke="black"/>
<path d="M 24,64 L 24,104" fill="none" stroke="black"/>
<path d="M 40,24 L 40,64" fill="none" stroke="black"/>
<path d="M 56,24 L 56,80" fill="none" stroke="black"/>
<path d="M 136,24 L 136,88" fill="none" stroke="black"/>
<path d="M 152,24 L 152,104" fill="none" stroke="black"/>
<path d="M 208,24 L 208,40" fill="none" stroke="black"/>
<path d="M 224,40 L 224,64" fill="none" stroke="black"/>
<path d="M 240,24 L 240,56" fill="none" stroke="black"/>
<path d="M 240,88 L 240,104" fill="none" stroke="black"/>
<path d="M 272,56 L 272,72" fill="none" stroke="black"/>
<path d="M 24,64 L 44,104" fill="none" stroke="black"/>
<path d="M 20,24 L 40,64" fill="none" stroke="black"/>
<path d="M 56,80 L 68,104" fill="none" stroke="black"/>
<path d="M 92,56 L 104,80" fill="none" stroke="black"/>
<path d="M 188,88 L 196,104" fill="none" stroke="black"/>
<path d="M 188,56 L 204,88" fill="none" stroke="black"/>
<path d="M 236,72 L 244,88" fill="none" stroke="black"/>
<path d="M 268,72 L 276,88" fill="none" stroke="black"/>
<path d="M 56,80 L 68,56" fill="none" stroke="black"/>
<path d="M 52,104 L 60,88" fill="none" stroke="black"/>
<path d="M 104,80 L 116,56" fill="none" stroke="black"/>
<path d="M 152,80 L 164,56" fill="none" stroke="black"/>
<path d="M 188,88 L 196,72" fill="none" stroke="black"/>
<path d="M 220,88 L 224,80" fill="none" stroke="black"/>
<path d="M 236,72 L 244,56" fill="none" stroke="black"/>
<path d="M 268,104 L 276,88" fill="none" stroke="black"/>
<path d="M 208,24 L 240,24" fill="none" stroke="black"/>
<path d="M 68,56 L 92,56" fill="none" stroke="black"/>
<path d="M 116,56 L 136,56" fill="none" stroke="black"/>
<path d="M 164,56 L 188,56" fill="none" stroke="black"/>
<path d="M 240,56 L 272,56" fill="none" stroke="black"/>
<path d="M 252,72 L 272,72" fill="none" stroke="black"/>
<path d="M 172,88 L 188,88" fill="none" stroke="black"/>
<path d="M 204,88 L 220,88" fill="none" stroke="black"/>
<path d="M 240,88 L 260,88" fill="none" stroke="black"/>
<path d="M 68,104 L 92,104" fill="none" stroke="black"/>
<path d="M 116,104 L 132,104" fill="none" stroke="black"/>
<path d="M 164,104 L 196,104" fill="none" stroke="black"/>
<path d="M 196,104 L 228,104" fill="none" stroke="black"/>
<path d="M 240,104 L 268,104" fill="none" stroke="black"/>
<g class="text">
<text x="16" y="20">_</text>
<text x="48" y="20">_</text>
<text x="144" y="20">_</text>
<text x="216" y="36">_</text>
<text x="80" y="68">_</text>
<text x="128" y="68">_</text>
<text x="176" y="68">_</text>
<text x="80" y="84">(_)</text>
<text x="124" y="84">(_</text>
<text x="12" y="100">\_</text>
<text x="48" y="100">_</text>
<text x="104" y="100">/ \</text>
<text x="140" y="100">,_</text>
<text x="160" y="100">\</text>
<text x="232" y="100">/</text>
</g>
<g class="source" fill="#6DA55F" font-size="12px">
<text x="18" y="22">_</text><text x="50" y="22">_</text><text x="146" y="22">_</text><text x="218" y="22">_</text><text x="226" y="22">_</text><text x="234" y="22">_</text><text x="10" y="38">|</text><text x="26" y="38">\</text><text x="42" y="38">|</text><text x="58" y="38">|</text><text x="138" y="38">|</text><text x="154" y="38">|</text><text x="210" y="38">|</text><text x="218" y="38">_</text><text x="242" y="38">|</text><text x="10" y="54">|</text><text x="34" y="54">\</text><text x="42" y="54">|</text><text x="58" y="54">|</text><text x="74" y="54">_</text><text x="82" y="54">_</text><text x="90" y="54">_</text><text x="122" y="54">_</text><text x="130" y="54">_</text><text x="138" y="54">|</text><text x="154" y="54">|</text><text x="170" y="54">_</text><text x="178" y="54">_</text><text x="186" y="54">_</text><text x="226" y="54">|</text><text x="242" y="54">|</text><text x="250" y="54">_</text><text x="258" y="54">_</text><text x="266" y="54">_</text><text x="10" y="70">|</text><text x="26" y="70">.</text><text x="42" y="70">`</text><text x="58" y="70">|</text><text x="66" y="70">/</text><text x="82" y="70">_</text><text x="98" y="70">\</text><text x="114" y="70">/</text><text x="130" y="70">_</text><text x="138" y="70">`</text><text x="154" y="70">|</text><text x="162" y="70">/</text><text x="178" y="70">_</text><text x="194" y="70">\</text><text x="226" y="70">|</text><text x="242" y="70">/</text><text x="258" y="70">_</text><text x="266" y="70">_</text><text x="274" y="70">|</text><text x="10" y="86">|</text><text x="26" y="86">|</text><text x="34" y="86">\</text><text x="58" y="86">|</text><text x="74" y="86">(</text><text x="82" y="86">_</text><text x="90" y="86">)</text><text x="106" y="86">|</text><text x="122" y="86">(</text><text x="130" y="86">_</text><text x="138" y="86">|</text><text x="154" y="86">|</text><text x="178" y="86">_</text><text x="186" y="86">_</text><text x="194" y="86">/</text><text x="202" y="86">\</text><text x="210" y="86">_</text><text x="218" y="86">_</text><text x="226" y="86">/</text><text x="242" y="86">\</text><text x="250" y="86">_</text><text x="258" y="86">_</text><text x="274" y="86">\</text><text x="10" y="102">\</text><text x="18" y="102">_</text><text x="26" y="102">|</text><text x="42" y="102">\</text><text x="50" y="102">_</text><text x="58" y="102">/</text><text x="66" y="102">\</text><text x="74" y="102">_</text><text x="82" y="102">_</text><text x="90" y="102">_</text><text x="98" y="102">/</text><text x="114" y="102">\</text><text x="122" y="102">_</text><text x="130" y="102">_</text><text x="138" y="102">,</text><text x="146" y="102">_</text><text x="154" y="102">|</text><text x="162" y="102">\</text><text x="170" y="102">_</text><text x="178" y="102">_</text><text x="186" y="102">_</text><text x="194" y="102">\</text><text x="202" y="102">_</text><text x="210" y="102">_</text><text x="218" y="102">_</text><text x="226" y="102">_</text><text x="234" y="102">/</text><text x="242" y="102">|</text><text x="250" y="102">_</text><text x="258" y="102">_</text><text x="266" y="102">_</text><text x="274" y="102">/</text></g></svg>
